<svg id="Layer_1" data-name="Layer 1" xmlns="http://www.w3.org/2000/svg" viewBox="0 0 5001 1501"><defs><style>.cls-1{fill:#fff;stroke:#231f20;stroke-miterlimit:10;}.cls-2{fill:#4a7c80;}.cls-3{fill:#243649;}.cls-4{font-size:1122.49px;fill:#345f62;font-family:VisbyRoundCF-Bold, Visby Round CF;font-weight:700;}</style></defs><rect class="cls-1" x="0.5" y="0.5" width="5000" height="1500" rx="750"/><path class="cls-2" d="M738,1794.77h303.87a0,0,0,0,1,0,0v607.75a0,0,0,0,1,0,0H738a303.87,303.87,0,0,1-303.87-303.87v0A303.87,303.87,0,0,1,738,1794.77Z" transform="translate(1700.63 -1505.16) rotate(45)"/><path class="cls-3" d="M1218.31,2275.07h303.87a0,0,0,0,1,0,0v607.75a0,0,0,0,1,0,0H1218.31a303.87,303.87,0,0,1-303.87-303.87v0a303.87,303.87,0,0,1,303.87-303.87Z" transform="translate(256.7 3666.03) rotate(-135)"/><text class="cls-4" transform="translate(1618.01 1133.21)">AB</text><path class="cls-3" d="M3453.07,2067.28c0,69.12-54,121.51-138.24,121.51H3249v101c0,20-16.2,36.72-36.18,36.72a36.77,36.77,0,0,1-36.73-36.72V1984.66c0-23.22,16.75-40,40-40h98.82C3399.07,1944.7,3453.07,1999.24,3453.07,2067.28Zm-70.74,0c0-44.28-30.24-60.48-70.74-60.48H3249v119.88h62.64C3352.09,2126.68,3382.33,2112.1,3382.33,2067.28Z" transform="translate(0.5 -1597.99)"/><path class="cls-3" d="M3777.07,1943.08c20,0,35.64,16.74,35.64,36.72v307.81c0,20-15.66,36.72-35.64,36.72a36.76,36.76,0,0,1-36.72-36.72V2167.73H3577.26v119.88c0,20-16.2,36.72-36.18,36.72a36.76,36.76,0,0,1-36.72-36.72V1979.8a36.76,36.76,0,0,1,36.72-36.72c20,0,36.18,16.74,36.18,36.72v125.82h163.09V1979.8A36.76,36.76,0,0,1,3777.07,1943.08Z" transform="translate(0.5 -1597.99)"/><path class="cls-3" d="M4211.77,2291.93c0,17.82-15.12,32.94-35.1,32.94a37.24,37.24,0,0,1-35.1-23.22l-27-63.72H3961.21l-27,63.72c-5.95,14-18.91,23.22-34.57,23.22-20,0-35.64-15.12-35.64-32.94a49.91,49.91,0,0,1,4.86-20.52l133.93-301.87c7.56-18.36,18.9-27,35.1-27s27.54,8.64,35.64,27l133.92,301.87A49.75,49.75,0,0,1,4211.77,2291.93Zm-122-111.78-51.84-122.05-51.84,122.05Z" transform="translate(0.5 -1597.99)"/><path class="cls-3" d="M4545,2290.31c0,18.9-14,34-32.94,34a33.23,33.23,0,0,1-27-13.5l-95.58-122H4336v101c0,20-16.2,36.72-36.18,36.72a36.76,36.76,0,0,1-36.72-36.72V1984.66c0-23.22,16.74-40,40-40h98.83c84.24,0,138.24,54.54,138.24,122.58,0,50.76-29.16,92.34-78.3,111.25l74.52,89.64C4541.17,2274.11,4545,2281.67,4545,2290.31Zm-209-163.63h62.65c40.5,0,70.74-14.58,70.74-59.4,0-44.28-30.24-60.48-70.74-60.48H4336Z" transform="translate(0.5 -1597.99)"/><path class="cls-3" d="M3549,2412.76v286.89c0,18.49-15.49,34.48-35,34.48-18.5,0-34-16-34-34.48V2531.71l-89.46,168.44c-6.5,12-17.5,19-29.49,19-11.5,0-22.49-7-29-19l-90-168.44v167.94c0,18.49-15,34.48-33.49,34.48-19.49,0-35-16-35-34.48V2412.76c0-21,16-31.49,31-31.49,14,0,27,10.5,34,22.49l122.45,220.42,123-220.42c7-12,20-22.49,34-22.49C3533,2381.27,3549,2391.77,3549,2412.76Z" transform="translate(0.5 -1597.99)"/><path class="cls-3" d="M3918.33,2704.15c0,16.49-14,30.48-32.48,30.48a34.46,34.46,0,0,1-32.49-21.49l-25-59H3686.43l-25,59c-5.5,13-17.5,21.49-32,21.49-18.49,0-33-14-33-30.48a46.21,46.21,0,0,1,4.5-19l123.95-279.39c7-17,17.5-25,32.49-25s25.49,8,33,25l124,279.39A46.06,46.06,0,0,1,3918.33,2704.15Zm-112.95-103.46-48-113-48,113Z" transform="translate(0.5 -1597.99)"/><path class="cls-3" d="M4230.21,2675.16c0,16.49-11.49,27.49-30,39.48-21,13-48.48,21.49-82.46,21.49-88.47,0-176.93-73-176.93-178.43s89-178.43,175.93-178.43c35,0,62.47,9,83.46,21.5,18.5,12,30,23,30,39.48,0,19.49-15.49,30.49-31.48,30.49-12.5,0-21.5-6.5-27-10.5a94.45,94.45,0,0,0-54-17c-56.48,0-106.46,50-106.46,114.45s49.48,114.46,107,114.46c27,0,46-12,53.48-17,5.49-4,14-10.49,27-10.49C4214.72,2644.67,4230.21,2655.66,4230.21,2675.16Z" transform="translate(0.5 -1597.99)"/><path class="cls-3" d="M4545.58,2411.76c0,6.5-1.5,12-5,17L4439.13,2576.7v127c0,18-15.5,32.48-33.49,32.48-17.49,0-33-14.49-33-32.48v-127l-101.46-147.95c-3.5-5-5-10.49-5-17,0-17,13.5-30.49,31-30.49,10,0,18.49,4.5,24.49,12.5l84,125.95,84.47-125.95a29.18,29.18,0,0,1,24.49-12.5C4531.59,2381.27,4545.58,2394.77,4545.58,2411.76Z" transform="translate(0.5 -1597.99)"/></svg>