<?xml version="1.0" standalone="no"?>
<!DOCTYPE svg PUBLIC "-//W3C//DTD SVG 20010904//EN"
 "http://www.w3.org/TR/2001/REC-SVG-20010904/DTD/svg10.dtd">
<svg version="1.0" xmlns="http://www.w3.org/2000/svg"
 width="2500.000000pt" height="2500.000000pt" viewBox="0 0 2500.000000 2500.000000"
 preserveAspectRatio="xMidYMid meet">
<metadata>
Created by potrace 1.14, written by Peter Selinger 2001-2017
</metadata>
<g transform="translate(0.000000,2500.000000) scale(0.100000,-0.100000)"
fill="#000000" stroke="none">
<path d="M7075 23814 c-27 -3 -90 -9 -140 -15 -49 -5 -151 -16 -225 -24 -197
-21 -647 -100 -712 -126 -14 -6 -61 -19 -105 -29 -128 -30 -387 -104 -418
-120 -11 -5 -40 -16 -65 -24 -25 -8 -76 -26 -115 -41 -38 -14 -99 -37 -135
-50 -64 -23 -125 -48 -205 -85 -22 -10 -65 -29 -95 -43 -124 -56 -422 -207
-515 -261 -57 -34 -135 -81 -175 -106 -25 -16 -65 -41 -90 -55 -24 -14 -63
-40 -85 -56 -22 -17 -67 -48 -100 -69 -167 -109 -387 -281 -615 -480 -155
-135 -491 -482 -644 -665 -87 -104 -166 -201 -174 -215 -9 -14 -35 -47 -57
-75 -38 -45 -74 -98 -145 -205 -14 -21 -43 -64 -64 -97 -90 -135 -183 -287
-228 -373 -10 -19 -31 -57 -47 -85 -48 -83 -192 -378 -205 -422 -4 -11 -13
-27 -21 -33 -8 -7 -15 -19 -15 -28 0 -9 -9 -34 -20 -56 -18 -39 -39 -92 -81
-214 -10 -29 -25 -62 -34 -74 -8 -13 -15 -34 -15 -48 0 -14 -8 -36 -17 -49
-16 -23 -28 -60 -77 -241 -13 -47 -31 -105 -40 -129 -9 -24 -16 -54 -16 -68 0
-13 -8 -38 -17 -56 -9 -18 -22 -63 -29 -102 -7 -38 -20 -97 -28 -130 -20 -81
-64 -333 -72 -420 -3 -38 -13 -97 -20 -130 -8 -33 -19 -139 -24 -236 -5 -97
-14 -208 -20 -245 -13 -90 -13 -582 0 -659 6 -33 13 -127 16 -210 3 -82 14
-193 24 -245 10 -52 22 -126 25 -165 4 -38 17 -126 30 -195 13 -69 26 -149 30
-179 3 -30 12 -66 19 -80 8 -14 17 -53 21 -86 4 -33 16 -77 26 -97 10 -20 19
-50 19 -65 1 -15 8 -46 16 -68 14 -37 39 -121 82 -281 9 -34 22 -68 29 -76 7
-7 17 -36 23 -63 6 -27 17 -57 25 -65 8 -8 18 -33 23 -55 10 -40 39 -116 72
-190 10 -22 23 -55 29 -74 6 -19 17 -42 25 -50 7 -9 16 -29 20 -45 4 -16 16
-41 27 -54 10 -14 19 -29 19 -35 0 -11 54 -130 71 -157 5 -8 18 -33 29 -55 11
-22 33 -62 48 -90 15 -27 47 -86 71 -130 23 -44 48 -87 55 -95 18 -22 116
-180 116 -187 0 -3 11 -21 25 -39 14 -18 25 -37 25 -42 0 -5 7 -16 16 -23 9
-7 37 -44 62 -82 26 -38 56 -82 67 -97 11 -15 29 -40 39 -56 11 -16 38 -51 61
-79 23 -27 52 -66 65 -85 54 -78 276 -326 447 -500 604 -615 4502 -4510 4514
-4510 19 0 8929 8912 8929 8931 0 17 -4585 4603 -4730 4731 -178 157 -341 288
-499 400 -121 86 -379 258 -398 265 -10 3 -31 16 -48 29 -83 60 -651 354 -686
354 -8 0 -29 9 -47 20 -42 26 -262 113 -422 167 -25 8 -67 23 -95 33 -76 28
-203 67 -270 84 -165 42 -195 49 -254 67 -35 10 -74 19 -86 19 -12 0 -55 9
-96 19 -94 24 -409 74 -649 102 -158 19 -244 22 -595 24 -225 1 -432 1 -460
-1z"/>
<path d="M13017 11972 c-2457 -2457 -4467 -4474 -4467 -4482 0 -14 4582 -4604
4695 -4704 28 -24 82 -72 120 -106 73 -64 376 -302 442 -347 239 -163 319
-216 350 -233 21 -11 58 -34 83 -50 100 -64 259 -151 450 -245 181 -90 402
-187 550 -240 36 -13 103 -38 150 -55 519 -191 1202 -324 1770 -345 91 -3 175
-11 187 -17 17 -8 26 -8 38 2 11 9 15 9 15 1 0 -14 53 -13 453 12 330 21 582
52 862 108 225 44 279 57 610 149 224 62 741 264 945 369 401 207 548 294 836
494 411 285 768 602 1127 1001 166 184 449 550 523 677 6 10 17 27 26 36 19
23 118 182 118 190 0 3 11 20 24 37 31 41 168 288 236 426 30 61 43 90 107
230 14 30 35 78 48 105 40 86 57 128 80 195 39 113 47 134 71 185 13 28 24 58
24 67 0 10 9 37 19 60 10 24 23 61 28 83 14 57 51 190 73 260 10 33 21 79 24
101 3 23 15 61 26 85 11 24 20 59 20 78 0 18 9 68 20 110 24 95 80 463 80 528
0 26 10 111 22 188 19 126 22 180 22 555 1 372 -1 431 -21 575 -12 88 -26 205
-32 260 -20 188 -65 453 -102 600 -6 22 -17 67 -26 100 -8 33 -21 80 -29 105
-8 25 -25 88 -39 140 -42 161 -53 197 -69 228 -9 17 -16 39 -16 49 0 10 -9 37
-21 58 -12 22 -25 56 -29 75 -5 19 -19 62 -33 95 -13 33 -37 94 -53 135 -15
41 -36 89 -46 105 -10 17 -18 37 -18 46 0 9 -8 27 -19 40 -10 13 -22 35 -26
49 -20 64 -239 491 -276 539 -11 13 -19 28 -19 34 0 6 -7 18 -15 27 -8 8 -40
58 -71 110 -165 274 -479 684 -718 940 -151 160 -4641 4650 -4651 4650 -5 0
-2020 -2010 -4478 -4468z"/>
</g>
</svg>
