<?xml version="1.0" standalone="no"?>
<!DOCTYPE svg PUBLIC "-//W3C//DTD SVG 20010904//EN"
 "http://www.w3.org/TR/2001/REC-SVG-20010904/DTD/svg10.dtd">
<svg version="1.0" xmlns="http://www.w3.org/2000/svg"
 width="1500.000000pt" height="1500.000000pt" viewBox="0 0 1500.000000 1500.000000"
 preserveAspectRatio="xMidYMid meet">
<metadata>
Created by potrace 1.14, written by Peter Selinger 2001-2017
</metadata>
<g transform="translate(0.000000,1500.000000) scale(0.100000,-0.100000)"
fill="#000000" stroke="none">
<path d="M12453 13499 c-121 -14 -353 -78 -484 -134 -109 -46 -251 -117 -245
-122 2 -3 15 2 28 11 12 9 29 16 37 16 8 0 22 6 30 14 9 7 30 16 46 20 20 4
25 4 16 -3 -12 -7 -11 -10 5 -14 11 -2 8 -4 -7 -3 -21 2 -25 -2 -21 -16 2 -10
-1 -18 -7 -18 -6 0 -11 6 -11 13 0 6 -6 3 -12 -7 -8 -14 -8 -24 1 -37 17 -28
14 -35 -21 -37 -40 -3 -51 -12 -15 -12 l27 0 3 -557 c2 -307 7 -573 11 -590 6
-22 5 -33 -3 -33 -6 0 -11 -4 -11 -10 0 -5 3 -9 8 -9 4 1 14 1 22 0 20 -2 -14
-22 -55 -32 -16 -4 46 -7 140 -8 164 -1 500 -24 573 -39 20 -4 37 -12 38 -17
2 -6 -38 -42 -89 -82 -140 -108 -550 -432 -567 -447 -8 -7 -21 -22 -28 -32 -7
-10 -9 -12 -5 -4 8 18 14 22 -114 -80 -94 -74 -129 -108 -50 -50 23 18 59 43
80 57 20 14 37 30 37 35 0 6 7 7 16 4 8 -3 12 -2 9 4 -3 5 4 8 15 7 13 -1 16
-5 10 -11 -15 -15 -12 -26 5 -20 18 7 20 -12 3 -23 -19 -11 -38 -12 -38 -2 0
6 -5 7 -10 4 -7 -4 -5 -14 4 -27 21 -29 24 -648 4 -670 -20 -21 -20 -38 -1
-40 10 0 23 -2 30 -2 18 -2 28 -16 12 -16 -12 0 -11 -2 1 -10 11 -7 5 -8 -20
-4 -26 4 -31 3 -20 -5 12 -9 10 -11 -12 -11 -15 0 -30 -4 -33 -10 -3 -5 -16
-11 -28 -11 -15 -1 -17 -3 -6 -6 32 -8 402 103 529 159 566 249 819 435 1199
883 215 253 428 440 634 554 143 79 394 169 588 212 51 11 95 22 97 23 15 16
-392 445 -546 575 -283 241 -611 443 -887 545 -55 21 -112 42 -127 48 -15 5
-31 10 -35 10 -4 0 -19 4 -32 9 -42 17 -204 48 -296 59 -104 11 -318 11 -422
-1z m-513 -193 c0 -3 -4 -8 -10 -11 -5 -3 -10 -1 -10 4 0 6 5 11 10 11 6 0 10
-2 10 -4z m-103 -974 c-1 -152 -2 -25 -2 283 0 308 1 433 2 277 2 -156 2 -408
0 -560z"/>
<path d="M11777 13253 c-10 -10 -8 -33 2 -33 6 0 9 9 8 20 -1 23 -1 22 -10 13z"/>
<path d="M11660 13215 c-14 -8 -20 -14 -14 -15 5 0 19 7 30 15 24 18 16 19
-16 0z"/>
<path d="M2025 12944 c-16 -2 -77 -9 -135 -15 -109 -12 -140 -21 -140 -42 0
-9 2 -9 8 1 14 22 76 26 95 7 23 -22 21 -33 -5 -38 l-23 -4 22 -2 22 -1 1
-1406 c0 -946 -3 -1403 -10 -1399 -7 4 -10 462 -10 1376 l0 1369 -25 0 -25 0
2 -1380 c2 -759 0 -1380 -4 -1380 -3 0 -9 5 -11 10 -3 6 -4 5 -3 -2 1 -6 10
-16 20 -22 10 -6 33 -23 50 -38 17 -16 34 -28 37 -28 4 0 20 -11 36 -24 15
-12 55 -38 88 -57 203 -113 418 -194 625 -234 74 -14 155 -30 180 -35 25 -5
127 -15 226 -22 144 -9 223 -9 380 1 110 7 224 17 254 22 30 5 107 16 170 24
63 8 135 19 160 24 132 26 174 35 265 56 55 13 126 29 158 37 31 7 57 17 57
23 0 13 -280 290 -430 426 -558 506 -1206 930 -1725 1129 -78 29 -120 51 -120
60 0 35 454 76 710 64 603 -28 1140 -193 1625 -498 107 -67 279 -194 378 -278
51 -44 96 -78 99 -75 9 10 -144 264 -285 475 -230 343 -485 655 -762 933 -199
200 -298 287 -475 421 -386 291 -801 467 -1210 513 -60 7 -241 13 -270 9z
m-168 -2931 c-3 -3 -13 1 -21 10 -8 8 -12 17 -9 20 3 3 12 -1 20 -9 9 -8 13
-18 10 -21z m20 -19 c-3 -3 -12 -4 -19 -1 -8 3 -5 6 6 6 11 1 17 -2 13 -5z"/>
<path d="M1710 12900 c-23 -7 -23 -8 -3 -9 12 -1 25 4 28 9 3 6 5 10 3 9 -2
-1 -14 -5 -28 -9z"/>
<path d="M1800 12880 c0 -5 7 -10 15 -10 8 0 15 5 15 10 0 6 -7 10 -15 10 -8
0 -15 -4 -15 -10z"/>
<path d="M1800 12830 c0 -5 11 -10 25 -10 14 0 25 5 25 10 0 6 -11 10 -25 10
-14 0 -25 -4 -25 -10z"/>
<path d="M11598 11913 c6 -2 18 -2 25 0 6 3 1 5 -13 5 -14 0 -19 -2 -12 -5z"/>
<path d="M11155 11453 c-485 -168 -866 -342 -1235 -566 -63 -38 -124 -75 -135
-81 -51 -28 -295 -200 -295 -207 0 -5 -5 -9 -11 -9 -25 0 -326 -242 -499 -400
-176 -161 -221 -206 -214 -213 4 -3 20 9 37 28 16 19 35 32 40 28 6 -3 7 -1 4
4 -4 6 3 19 14 28 18 18 21 18 36 2 11 -11 13 -17 5 -17 -7 0 -12 5 -12 10 0
18 -19 11 -20 -7 -2 -59 -10 -98 -19 -101 -17 -6 -14 -62 4 -62 12 0 15 -19
15 -110 0 -67 -4 -110 -10 -110 -5 0 -10 -7 -10 -15 0 -8 6 -15 13 -15 8 0 7
-4 -3 -11 -11 -8 -12 -12 -2 -16 6 -2 12 -13 12 -24 0 -20 15 -26 25 -9 3 6
11 10 16 10 5 0 1 -10 -11 -22 -11 -12 -21 -29 -21 -37 -6 -65 -5 -70 8 -59 8
6 12 17 9 25 -3 8 -2 12 3 9 4 -3 52 47 107 112 259 307 525 577 859 873 63
56 200 167 325 265 104 81 147 113 299 222 133 96 467 311 616 397 94 54 174
102 180 107 18 16 -32 5 -130 -29z m-2235 -1353 c-13 -9 -13 -11 0 -20 8 -5
11 -10 5 -10 -5 0 -17 5 -25 10 -13 9 -13 11 0 20 8 5 20 10 25 10 6 0 3 -5
-5 -10z"/>
<path d="M7238 11121 c-70 -23 -141 -67 -188 -117 -19 -20 -29 -34 -22 -30 10
6 12 -118 10 -652 -2 -363 1 -658 5 -655 5 3 3 -5 -3 -18 -12 -21 -9 -26 31
-60 24 -21 73 -53 108 -71 56 -28 77 -33 151 -36 159 -7 273 51 391 198 72 90
145 250 154 335 2 22 12 85 22 140 32 168 17 348 -43 523 -73 212 -180 347
-333 420 -93 45 -193 53 -283 23z"/>
<path d="M11604 11118 l-19 -23 23 19 c21 18 27 26 19 26 -2 0 -12 -10 -23
-22z"/>
<path d="M11824 10870 c0 -151 2 -213 3 -137 2 75 2 199 0 275 -1 75 -3 13 -3
-138z"/>
<path d="M11540 11069 c-22 -18 -22 -19 -3 -10 12 6 25 16 28 21 9 15 3 12
-25 -11z"/>
<path d="M6995 10950 c-3 -5 -1 -10 4 -10 6 0 11 5 11 10 0 6 -2 10 -4 10 -3
0 -8 -4 -11 -10z"/>
<path d="M11685 10410 c-13 -5 -14 -9 -5 -9 8 0 24 4 35 9 13 5 14 9 5 9 -8 0
-24 -4 -35 -9z"/>
<path d="M1505 10310 c10 -11 20 -20 23 -20 3 0 -3 9 -13 20 -10 11 -20 20
-23 20 -3 0 3 -9 13 -20z"/>
<path d="M1555 10250 c10 -11 20 -20 23 -20 3 0 -3 9 -13 20 -10 11 -20 20
-23 20 -3 0 3 -9 13 -20z"/>
<path d="M1590 10216 c0 -2 8 -10 18 -17 15 -13 16 -12 3 4 -13 16 -21 21 -21
13z"/>
<path d="M4947 10189 c7 -7 15 -10 18 -7 3 3 -2 9 -12 12 -14 6 -15 5 -6 -5z"/>
<path d="M4980 10166 c0 -2 16 -14 36 -26 19 -12 33 -25 30 -27 -12 -12 16
-45 34 -40 12 3 20 -2 23 -15 5 -17 2 -19 -21 -13 -15 3 -36 14 -47 24 -11 10
-27 22 -35 26 -8 5 19 -22 60 -60 366 -337 650 -650 1000 -1106 141 -184 348
-508 501 -785 86 -154 263 -513 299 -605 12 -29 30 -73 42 -98 104 -230 286
-777 362 -1091 72 -301 131 -625 165 -910 46 -382 54 -533 55 -962 1 -327 3
-402 13 -383 20 38 102 252 143 375 76 225 119 385 165 605 15 72 29 139 32
150 2 11 15 94 28 185 58 404 63 794 15 1152 -65 483 -225 915 -485 1308 -482
729 -1281 1512 -2190 2149 -66 47 -141 99 -168 118 -45 32 -57 38 -57 29z m95
-67 c11 -17 -1 -21 -15 -4 -8 9 -8 15 -2 15 6 0 14 -5 17 -11z"/>
<path d="M1718 10091 c24 -24 45 -41 48 -38 3 2 -6 14 -20 25 -14 10 -23 22
-21 26 3 3 2 4 -2 1 -3 -3 -16 3 -27 12 -12 9 -2 -3 22 -26z"/>
<path d="M1764 10105 c-9 -21 -2 -26 13 -10 8 9 9 16 3 20 -6 3 -13 -1 -16
-10z"/>
<path d="M8735 9960 c-3 -5 -2 -10 4 -10 5 0 13 5 16 10 3 6 2 10 -4 10 -5 0
-13 -4 -16 -10z"/>
<path d="M8646 9861 l-30 -36 34 32 c19 18 32 34 29 36 -2 2 -17 -12 -33 -32z"/>
<path d="M8844 9770 c0 -52 1 -74 3 -47 2 26 2 68 0 95 -2 26 -3 4 -3 -48z"/>
<path d="M6990 9676 c0 -2 8 -10 18 -17 15 -13 16 -12 3 4 -13 16 -21 21 -21
13z"/>
<path d="M8850 9556 c0 -22 3 -27 11 -19 8 8 8 16 0 30 -9 16 -10 14 -11 -11z"/>
<path d="M8845 9510 c3 -5 8 -10 11 -10 2 0 4 5 4 10 0 6 -5 10 -11 10 -5 0
-7 -4 -4 -10z"/>
<path d="M8837 9459 c-31 -36 -34 -44 -11 -35 9 3 2 -11 -16 -34 -17 -22 -37
-37 -42 -34 -7 4 -8 2 -4 -4 4 -7 -22 -53 -59 -107 -37 -52 -64 -95 -61 -95 3
0 20 21 37 48 45 66 138 192 164 222 17 20 32 70 22 70 -2 0 -15 -14 -30 -31z"/>
<path d="M8771 9384 c0 -11 3 -14 6 -6 3 7 2 16 -1 19 -3 4 -6 -2 -5 -13z"/>
<path d="M8599 9093 c-13 -16 -12 -17 4 -4 9 7 17 15 17 17 0 8 -8 3 -21 -13z"/>
<path d="M8570 9050 c-6 -11 -8 -20 -6 -20 3 0 10 9 16 20 6 11 8 20 6 20 -3
0 -10 -9 -16 -20z"/>
<path d="M10006 8750 c4 -8 26 -40 49 -70 274 -360 441 -820 517 -1420 17
-140 17 -641 0 -775 -8 -55 -20 -149 -28 -210 -78 -597 -317 -1273 -654 -1845
-223 -380 -446 -668 -759 -980 -210 -210 -361 -338 -556 -475 -193 -135 -478
-293 -635 -352 -36 -14 -78 -31 -95 -38 -50 -23 -295 -95 -375 -110 -275 -53
-562 -66 -772 -34 -346 51 -633 170 -895 371 -35 27 -66 48 -69 46 -2 -2 19
-21 46 -42 28 -21 47 -42 44 -47 -3 -5 2 -6 10 -3 9 3 16 1 16 -6 0 -6 5 -8
10 -5 6 3 10 1 10 -4 0 -6 -7 -11 -15 -11 -8 0 -15 -5 -15 -11 0 -6 7 -9 14
-6 11 4 13 1 9 -10 -4 -9 -2 -14 3 -11 5 4 8 -193 6 -498 -2 -391 -5 -504 -15
-504 -14 0 -47 20 -33 20 12 0 -14 30 -27 30 -6 0 -2 -7 9 -16 18 -15 18 -15
-3 -9 -43 12 -23 -5 40 -34 135 -62 385 -137 552 -166 225 -39 573 -44 785
-10 52 9 122 20 155 25 33 5 75 14 93 19 18 5 34 10 37 11 3 0 10 2 17 4 7 2
38 9 68 16 158 36 428 139 638 243 1019 507 1878 1522 2347 2772 221 588 328
1171 328 1775 0 382 -33 659 -118 1000 -107 432 -295 832 -538 1146 -75 97
-216 254 -201 224z"/>
<path d="M5557 7445 c-11 -16 -13 -23 -5 -20 15 6 42 45 31 45 -5 0 -16 -12
-26 -25z"/>
<path d="M5990 6398 c-59 -30 -99 -89 -121 -179 l-18 -72 32 -44 c25 -36 29
-46 17 -53 -11 -7 -12 -16 -2 -47 15 -51 20 -103 11 -103 -5 0 -6 -7 -3 -15 4
-9 0 -15 -9 -15 -13 0 -16 -20 -19 -122 -2 -68 0 -130 4 -138 5 -11 7 -9 8 8
0 15 6 22 20 22 11 0 20 -5 20 -11 0 -5 -4 -8 -9 -4 -12 7 -20 -18 -23 -72 -1
-24 -5 -43 -9 -43 -4 0 -9 -11 -11 -25 -3 -14 -2 -25 2 -25 15 0 18 -66 4 -94
-16 -34 -17 -39 -5 -32 5 3 7 -31 6 -77 -2 -45 -1 -70 2 -54 2 15 8 27 13 27
5 0 7 -7 4 -15 -4 -9 0 -15 10 -15 9 0 16 -5 16 -11 0 -6 -7 -9 -15 -5 -9 3
-15 0 -15 -9 0 -8 -4 -15 -9 -15 -5 0 -2 -14 6 -32 15 -28 15 -32 -1 -43 -20
-15 -20 -25 -1 -39 13 -10 13 -14 1 -38 -8 -16 -11 -28 -6 -28 4 0 11 -7 14
-16 5 -12 1 -14 -15 -9 -15 5 -19 4 -15 -4 5 -7 -2 -11 -18 -11 -14 0 -27 -4
-30 -9 -3 -5 13 -4 37 1 53 13 343 3 415 -13 76 -18 102 -48 102 -115 0 -52
-1 -54 -42 -80 -77 -48 -88 -62 -88 -117 0 -45 4 -54 39 -87 59 -56 116 -65
416 -65 304 0 381 13 446 75 37 35 39 40 39 98 0 68 -12 86 -61 97 -54 12
-110 80 -148 180 -41 109 -148 379 -166 420 -8 17 -48 113 -89 215 -200 492
-258 613 -364 750 -78 101 -132 130 -246 130 -65 0 -91 -5 -126 -22z m-75
-143 c1 -20 -2 -38 -7 -41 -4 -3 -8 -15 -8 -27 0 -18 -2 -19 -10 -7 -9 15 -7
64 6 102 8 27 16 16 19 -27z m-38 -107 c-3 -8 -6 -5 -6 6 -1 11 2 17 5 13 3
-3 4 -12 1 -19z m24 -21 c-8 -8 -11 -7 -11 4 0 9 3 19 7 23 4 4 9 2 11 -4 3
-7 -1 -17 -7 -23z m203 -476 c35 -30 153 -299 152 -346 -1 -45 -50 -58 -201
-52 -66 2 -128 8 -137 12 -30 12 -22 62 44 260 34 104 50 133 81 144 24 9 32
7 61 -18z m-164 -156 c0 -12 -19 -12 -23 0 -4 9 -1 12 9 8 7 -3 14 -7 14 -8z
m-10 -39 c0 -3 -4 -8 -10 -11 -5 -3 -10 -1 -10 4 0 6 5 11 10 11 6 0 10 -2 10
-4z"/>
<path d="M5895 6230 c-3 -5 -1 -10 4 -10 6 0 11 5 11 10 0 6 -2 10 -4 10 -3 0
-8 -4 -11 -10z"/>
<path d="M8885 6390 c-38 -4 -113 -8 -165 -10 -52 -1 -89 -4 -82 -7 9 -4 12
-195 12 -912 0 -681 3 -910 12 -919 9 -9 5 -17 -14 -35 l-26 -24 307 -7 c309
-7 362 -4 461 29 141 47 308 229 293 321 -6 33 9 48 21 22 3 -7 4 0 2 17 -3
19 2 33 12 41 13 9 16 26 13 75 -2 35 -4 87 -5 114 -2 28 -6 58 -10 68 -5 9
-4 23 2 30 9 12 -5 52 -43 116 -31 55 -90 114 -158 159 -94 62 -96 73 -20 174
32 42 66 98 75 125 84 239 5 490 -184 581 -98 48 -290 64 -503 42z m-218
-1387 c-1 -252 -2 -48 -2 452 0 501 1 707 2 458 2 -248 2 -658 0 -910z m308
1109 c64 -54 85 -121 86 -269 1 -108 -15 -178 -49 -219 -45 -54 -143 -72 -178
-33 -18 20 -19 39 -19 258 0 283 0 281 83 281 39 0 63 -6 77 -18z m25 -811
c75 -38 120 -149 120 -296 0 -159 -49 -243 -154 -265 -82 -17 -119 10 -139
102 -13 58 -16 413 -4 438 24 50 102 59 177 21z"/>
<path d="M8548 6383 c12 -2 32 -2 45 0 12 2 2 4 -23 4 -25 0 -35 -2 -22 -4z"/>
<path d="M5857 6066 c-4 -15 -6 -31 -2 -34 10 -10 16 6 13 35 l-3 28 -8 -29z"/>
<path d="M5842 5951 c-7 -35 -11 -66 -8 -69 3 -3 6 4 6 16 0 11 5 22 11 24 6
2 9 23 7 48 l-3 45 -13 -64z"/>
<path d="M5880 5930 c0 -5 5 -10 11 -10 5 0 7 5 4 10 -3 6 -8 10 -11 10 -2 0
-4 -4 -4 -10z"/>
<path d="M5882 5120 c0 -14 2 -19 5 -12 2 6 2 18 0 25 -3 6 -5 1 -5 -13z"/>
<path d="M5802 4708 c9 -7 30 -21 47 -30 32 -18 44 -61 19 -71 -10 -4 -10 -7
0 -15 18 -12 1 -54 -34 -81 -15 -11 -22 -21 -17 -21 17 0 63 48 74 77 24 63
-5 117 -79 143 -23 9 -24 8 -10 -2z"/>
<path d="M5596 2988 c10 -14 21 -24 23 -22 3 3 -6 15 -18 27 l-24 22 19 -27z"/>
<path d="M5702 2884 c10 -10 20 -16 22 -13 3 3 -5 11 -17 18 -21 13 -21 12 -5
-5z"/>
<path d="M5687 1771 c23 -22 39 -28 28 -11 -3 5 -16 15 -28 21 l-22 11 22 -21z"/>
</g>
</svg>
