<?xml version="1.0" standalone="no"?>
<!DOCTYPE svg PUBLIC "-//W3C//DTD SVG 20010904//EN"
 "http://www.w3.org/TR/2001/REC-SVG-20010904/DTD/svg10.dtd">
<svg version="1.0" xmlns="http://www.w3.org/2000/svg"
 width="2500.000000pt" height="2500.000000pt" viewBox="0 0 2500.000000 2500.000000"
 preserveAspectRatio="xMidYMid meet">
<metadata>
Created by potrace 1.14, written by Peter Selinger 2001-2017
</metadata>
<g transform="translate(0.000000,2500.000000) scale(0.100000,-0.100000)"
fill="#000000" stroke="none">
<path d="M3407 17220 c-427 -49 -826 -191 -1172 -417 -351 -230 -664 -566
-864 -927 -360 -651 -431 -1420 -195 -2131 47 -142 64 -181 154 -360 85 -168
172 -304 285 -445 44 -55 498 -518 1073 -1093 l996 -998 1871 1871 1870 1870
-990 988 c-647 645 -1026 1017 -1095 1071 -377 299 -785 477 -1275 557 -117
18 -536 27 -658 14z"/>
<path d="M14686 15943 c-170 -36 -311 -145 -414 -320 -17 -28 -128 -270 -247
-539 -120 -269 -227 -511 -240 -539 -12 -27 -48 -108 -80 -180 -31 -71 -65
-148 -75 -170 -10 -22 -62 -139 -115 -260 -54 -121 -108 -242 -120 -270 -13
-27 -112 -250 -220 -495 -109 -245 -207 -467 -220 -495 -12 -27 -255 -574
-540 -1215 -284 -641 -525 -1183 -535 -1205 -157 -351 -171 -391 -190 -531
-21 -151 17 -292 113 -420 138 -187 410 -287 647 -239 195 40 336 134 443 296
20 30 66 124 102 209 36 85 73 171 82 190 9 19 26 60 39 90 67 167 317 746
326 757 8 11 274 13 1387 13 757 0 1381 -4 1386 -8 15 -11 -4 33 257 -582 255
-602 278 -651 343 -732 150 -186 417 -281 655 -233 302 61 509 299 510 587 0
72 -20 193 -46 273 -9 27 -409 934 -889 2015 -480 1081 -899 2024 -930 2095
-32 72 -73 163 -91 203 -19 41 -34 75 -34 77 0 2 -18 43 -40 90 -22 47 -40 88
-40 90 0 2 -18 43 -40 90 -22 47 -40 88 -40 90 0 2 -13 32 -29 67 -16 35 -55
122 -86 193 -32 72 -68 153 -80 180 -13 28 -64 141 -113 253 -102 229 -172
341 -266 430 -146 136 -360 191 -570 145z m189 -2170 c18 -43 130 -307 250
-588 119 -280 234 -550 255 -600 21 -49 115 -272 210 -495 95 -223 174 -411
177 -417 4 -10 -186 -13 -931 -13 -682 0 -936 3 -936 11 0 6 50 129 111 273
61 143 167 394 236 556 69 162 135 318 148 345 12 28 111 262 220 520 109 259
203 476 208 483 13 17 15 15 52 -75z"/>
<path d="M19508 15915 c-258 -48 -459 -212 -539 -442 -51 -146 -49 -14 -49
-2968 0 -2322 2 -2762 14 -2830 52 -295 245 -502 535 -573 58 -14 178 -16
1041 -18 536 -1 1054 2 1150 7 1250 63 2049 614 2245 1549 24 113 45 322 45
445 0 140 -24 350 -56 485 -135 573 -548 1006 -1221 1280 -87 35 -102 53 -55
65 15 3 71 29 126 56 397 200 634 516 712 949 21 115 24 433 5 557 -108 730
-645 1227 -1506 1393 -267 51 -302 53 -1370 56 -830 2 -1013 0 -1077 -11z
m1960 -1106 c239 -26 399 -94 533 -228 63 -63 84 -93 121 -171 62 -130 73
-186 72 -365 0 -167 -12 -230 -68 -350 -87 -186 -245 -323 -451 -390 -158 -51
-228 -56 -855 -53 l-575 3 -3 770 c-1 424 0 776 3 783 6 16 1076 17 1223 1z
m277 -2582 c310 -58 502 -152 666 -325 183 -193 271 -454 256 -761 -11 -233
-76 -410 -210 -572 -103 -124 -289 -242 -470 -298 -228 -70 -421 -83 -1172
-79 l-570 3 -3 1028 -2 1028 712 -4 c582 -4 728 -7 793 -20z"/>
<path d="M5992 12277 c-1024 -1024 -1862 -1867 -1862 -1872 0 -18 1992 -1999
2080 -2069 481 -382 1046 -579 1660 -579 375 0 704 67 1050 215 753 321 1329
1004 1520 1803 152 636 77 1261 -222 1848 -67 132 -191 323 -288 443 -69 86
-2048 2074 -2065 2074 -5 0 -848 -838 -1873 -1863z"/>
</g>
</svg>
